<svg xmlns="http://www.w3.org/2000/svg" viewBox="0 0 200 60">
  <path d="M5,30 C15,18 30,38 50,25 C70,12 85,40 110,28 C135,16 150,35 170,22 C185,14 195,30 195,30 C195,32 185,20 170,32 C150,44 135,22 110,38 C85,50 70,20 50,35 C30,48 15,26 5,35 Z" fill="rgba(139,35,50,0.3)" stroke="none"/>
  <path d="M10,32 C25,20 40,40 60,27 C80,14 95,42 115,30 C140,18 155,38 175,25 C190,17 198,32 198,32 C198,34 190,22 175,34 C155,46 140,24 115,40 C95,52 80,22 60,37 C40,50 25,28 10,37 Z" fill="rgba(139,35,50,0.2)" stroke="none"/>
</svg>
