<svg width="280" height="100" viewBox="0 0 280 100" fill="none" xmlns="http://www.w3.org/2000/svg">
  <defs>
    <clipPath id="frame">
      <rect x="0" y="0" width="280" height="100" rx="12"/>
    </clipPath>
    <clipPath id="starLeft">
      <rect x="0" y="0" width="140" height="100"/>
    </clipPath>
    <clipPath id="starRight">
      <rect x="140" y="0" width="140" height="100"/>
    </clipPath>
  </defs>
  
  <g clip-path="url(#frame)">
    <rect x="0" y="0" width="140" height="100" fill="#FAF8F5"/>
    <rect x="140" y="0" width="140" height="100" fill="#B8293D"/>
    
    <text x="52" y="68" font-family="Space Grotesk, sans-serif" font-size="56" font-weight="700" fill="#B8293D" text-anchor="middle" letter-spacing="-2">13</text>
    <text x="228" y="68" font-family="Space Grotesk, sans-serif" font-size="56" font-weight="700" fill="#FAF8F5" text-anchor="middle" letter-spacing="-2">13</text>
    
    <g clip-path="url(#starLeft)">
      <path d="M140 18 L148 42 L173 42 L153 58 L161 82 L140 68 L119 82 L127 58 L107 42 L132 42 Z" fill="#B8293D"/>
    </g>
    <g clip-path="url(#starRight)">
      <path d="M140 18 L148 42 L173 42 L153 58 L161 82 L140 68 L119 82 L127 58 L107 42 L132 42 Z" fill="#FAF8F5"/>
    </g>
  </g>
</svg>
